<?xml version="1.0" encoding="UTF-8" standalone="no"?>
<svg
   xmlns:dc="http://purl.org/dc/elements/1.1/"
   xmlns:cc="http://creativecommons.org/ns#"
   xmlns:rdf="http://www.w3.org/1999/02/22-rdf-syntax-ns#"
   xmlns:svg="http://www.w3.org/2000/svg"
   xmlns="http://www.w3.org/2000/svg"
   xmlns:sodipodi="http://sodipodi.sourceforge.net/DTD/sodipodi-0.dtd"
   xmlns:inkscape="http://www.inkscape.org/namespaces/inkscape"
   width="210mm"
   height="297mm"
   viewBox="0 0 210 297"
   version="1.1"
   id="svg8"
   inkscape:version="1.0.2 (e86c8708, 2021-01-15)"
   sodipodi:docname="Chicago-skyline.svg">
  <defs
     id="defs2">
    <filter
       inkscape:collect="always"
       style="color-interpolation-filters:sRGB"
       id="filter985"
       x="-1.1774958e-05"
       width="1.0000235"
       y="-5.1977252e-05"
       height="1.000104">
      <feGaussianBlur
         inkscape:collect="always"
         stdDeviation="0.0010324724"
         id="feGaussianBlur987" />
    </filter>
  </defs>
  <sodipodi:namedview
     id="base"
     pagecolor="#ffffff"
     bordercolor="#666666"
     borderopacity="1.0"
     inkscape:pageopacity="0.0"
     inkscape:pageshadow="2"
     inkscape:zoom="0.50846875"
     inkscape:cx="161.23091"
     inkscape:cy="538.13521"
     inkscape:document-units="mm"
     inkscape:current-layer="g870"
     inkscape:document-rotation="0"
     showgrid="false"
     inkscape:window-width="1361"
     inkscape:window-height="784"
     inkscape:window-x="79"
     inkscape:window-y="24"
     inkscape:window-maximized="0" />
  <metadata
     id="metadata5">
    <rdf:RDF>
      <cc:Work
         rdf:about="">
        <dc:format>image/svg+xml</dc:format>
        <dc:type
           rdf:resource="http://purl.org/dc/dcmitype/StillImage" />
        <dc:title></dc:title>
      </cc:Work>
    </rdf:RDF>
  </metadata>
  <g
     inkscape:label="Layer 1"
     inkscape:groupmode="layer"
     id="layer1"
     style="display:inline;opacity:1">
    <g
       id="g870"
       transform="matrix(0.98681868,0,0,0.98677414,1.6109771,19.625041)"
       style="stroke-width:1.0134">
      <path
         style="fill:#000000;stroke-width:0.63813399;stroke:#7f00da;stroke-opacity:1;filter:url(#filter985);stroke-miterlimit:4;stroke-dasharray:none"
         d="m -0.9611718,76.738826 v -8.165274 h 0.605759 c 0.333168,0 0.728209,0.122456 0.877871,0.272125 0.165646,0.165653 1.50011,0.242941 3.410688,0.197539 l 3.138575,-0.07459 0.07738,-1.909544 0.07738,-1.909544 h 1.7003911 1.7003887 v -1.025362 c 0,-0.708886 0.133804,-1.076709 0.433515,-1.191724 0.380744,-0.146113 0.415758,-0.551745 0.287653,-3.332352 l -0.145861,-3.16599 0.697306,-0.646609 c 0.792428,-0.734813 2.941364,-0.949467 2.941364,-0.293809 0,0.194042 0.296295,0.487809 0.658434,0.65282 0.655073,0.298484 0.658434,0.318185 0.658434,3.861364 0,3.365333 0.0285,3.56135 0.517837,3.56135 0.478115,0 0.523571,0.217177 0.59259,2.831393 l 0.07475,2.831393 h 1.843615 1.843614 l 0.07153,-5.070169 c 0.06845,-4.852028 0.09395,-5.070169 0.592591,-5.070169 0.497307,0 0.52106,-0.19082 0.52106,-4.185987 0,-3.477907 0.06683,-4.211632 0.395061,-4.337593 0.319561,-0.122632 0.39506,-0.732043 0.39506,-3.188804 v -3.037198 h 0.658434 0.658434 v -3.445959 c 0,-2.639447 0.07705,-3.420388 0.329217,-3.336703 0.231007,0.07666 0.351432,0.98677 0.403685,3.050881 0.101478,4.008472 0.583965,3.827528 0.583965,-0.219 0,-2.633854 0.06584,-3.160625 0.395061,-3.160625 0.3317,0 0.39506,0.571587 0.39506,3.563969 0,2.925002 0.07083,3.59115 0.39506,3.715575 0.315867,0.121215 0.395061,0.696735 0.395061,2.871038 v 2.719433 l 0.79012,0.56264 0.790121,0.562641 v 3.783658 3.78366 l 0.724277,0.08334 0.724277,0.08334 -0.08553,3.950781 c -0.04704,2.17293 -0.0074,4.696949 0.08809,5.608929 l 0.173624,1.658151 1.623837,-0.07784 c 1.553433,-0.07446 1.627451,-0.109239 1.707174,-0.802145 l 0.08334,-0.72431 h 2.879616 2.879615 v -4.181917 c 0,-3.480177 0.06944,-4.239546 0.413816,-4.525367 0.227596,-0.188897 0.562642,-0.707134 0.744546,-1.151637 0.330189,-0.806865 0.33125,-0.807218 0.648945,-0.21557 0.553015,1.029887 1.249702,0.7471 1.622212,-0.658464 l 0.331569,-1.25108 0.43562,1.447255 c 0.268238,0.891162 0.600831,1.479072 0.865585,1.530064 0.324784,0.06255 0.472078,0.513901 0.602119,1.845062 0.25878,2.649035 0.27802,2.684102 1.472687,2.684102 0.685051,0 1.096137,0.135839 1.195611,0.395078 0.09883,0.257562 0.508485,0.395079 1.176916,0.395079 0.953334,0 1.025316,0.05307 1.025316,0.755902 0,0.70502 0.08313,0.765272 1.235009,0.89511 0.691972,0.078 1.370622,0.324684 1.543432,0.561027 0.721941,0.987356 0.893958,0.420139 0.9672,-3.189276 l 0.07328,-3.611087 0.921807,-0.206687 c 1.24404,-0.278933 6.491344,-0.288586 7.637833,-0.01404 l 0.921807,0.220735 0.07328,3.611088 0.07328,3.61109 h 2.494616 2.494616 v -3.83216 c 0,-2.919896 0.09566,-4.017157 0.401824,-4.609244 l 0.401824,-0.777087 h 2.59405 c 1.426729,0 2.946579,-0.07051 3.377447,-0.156686 0.776918,-0.155392 0.784719,-0.145046 0.943215,1.251081 0.14609,1.286846 0.279576,1.51498 1.554043,2.655941 1.346632,1.205565 1.450419,1.248273 3.040311,1.251081 1.288894,0.0024 1.646084,-0.08282 1.646084,-0.392173 0,-0.315794 0.393401,-0.395078 1.960369,-0.395078 1.625923,0 2.020033,0.08519 2.310112,0.499355 0.495672,0.707703 3.739434,1.07378 3.979144,0.449067 0.11731,-0.305725 0.51001,-0.421651 1.42833,-0.421651 1.68655,0 2.43723,0.539503 2.43723,1.751597 0,0.710066 0.12525,0.964328 0.52674,1.069326 0.47688,0.124713 0.52675,0.359263 0.52675,2.477503 v 2.33975 h 1.0535 1.053494 v 1.067306 1.067306 l 1.38271,-0.07961 1.382709,-0.07961 0.0742,-3.092327 0.0742,-3.092326 0.76871,-0.39753 c 0.42278,-0.218642 1.36413,-0.39753 2.09189,-0.39753 1.20382,0 1.36004,0.07128 1.73177,0.790156 0.49557,0.958386 0.57528,0.966904 1.23223,0.131693 0.50073,-0.636608 0.6222,-0.658464 3.65929,-0.658464 h 3.14137 v 2.370469 2.370468 h 0.92181 0.9218 v 2.71287 c 0,2.977745 0.26146,3.666733 1.10258,2.905499 0.41902,-0.379225 0.47767,-0.896203 0.47767,-4.210571 v -3.778266 h 2.06513 2.06513 l 0.71672,-1.316927 c 0.59131,-1.08647 0.84327,-1.316927 1.4398,-1.316927 0.5752,0 0.94886,0.307589 1.82718,1.504099 l 1.10411,1.504099 v 2.578375 c 0,1.543325 0.10573,2.578374 0.26337,2.578374 0.16461,0 0.26338,-1.580312 0.26338,-4.214166 v -4.214167 h 0.63025 c 0.34664,0 0.69848,-0.177785 0.78186,-0.395078 0.19644,-0.511939 1.19331,-0.511939 1.38975,0 0.17346,0.452049 2.06981,0.559052 2.33392,0.131693 0.0895,-0.144862 0.86689,-0.263385 1.72747,-0.263385 1.21526,0 1.5647,-0.08823 1.5647,-0.395079 0,-0.285333 0.29264,-0.395078 1.05349,-0.395078 0.99497,0 1.0535,0.0439 1.0535,0.790157 0,0.746257 0.0585,0.790156 1.05349,0.790156 h 1.0535 v -2.94344 c 0,-2.851429 0.0298,-3.003742 0.95318,-4.87263 0.62937,-1.273784 1.10632,-1.92919 1.40391,-1.92919 0.53877,0 1.85821,1.796165 2.47079,3.363495 0.34527,0.88341 0.43959,2.027717 0.43959,5.333554 0,3.565596 0.0604,4.208835 0.39506,4.208835 0.34458,0 0.39506,-1.346191 0.39506,-10.535415 V 47.766106 l 0.59259,-0.0084 c 0.32592,-0.0046 0.82265,-0.182392 1.10383,-0.395078 0.75451,-0.570706 2.94021,-0.48021 4.55361,0.188536 l 1.3878,0.575237 v 11.261561 c 0,10.230879 0.16444,13.038418 0.62793,10.720861 0.2402,-1.201056 0.62656,-1.535295 1.77468,-1.535295 0.73219,0 1.02125,-0.111823 1.02125,-0.395078 0,-0.217293 0.16326,-0.395078 0.36281,-0.395078 0.19954,0 0.51035,0.177785 0.69068,0.395078 0.18033,0.217293 0.49486,0.395078 0.69895,0.395078 0.20409,0 0.4393,0.177785 0.52268,0.395078 0.0997,0.259761 0.51122,0.395078 1.20157,0.395078 0.82847,0 1.07903,-0.111125 1.18772,-0.526771 0.0758,-0.289723 0.3017,-0.52677 0.50209,-0.52677 0.20039,0 0.36434,-0.177785 0.36434,-0.395078 0,-0.303294 0.33653,-0.395079 1.44856,-0.395079 0.7967,0 1.44855,0.118524 1.44855,0.263386 0,0.144862 0.16836,0.263385 0.37413,0.263385 0.20578,0 0.45223,0.355571 0.54768,0.790156 0.16899,0.769436 0.21443,0.790157 1.73285,0.790157 1.2308,0 1.55932,-0.08575 1.55932,-0.407012 0,-0.318852 0.19067,-0.371242 0.88028,-0.241865 0.76086,0.142745 0.97295,0.05503 1.56324,-0.646526 0.37562,-0.446426 0.86249,-0.811681 1.08193,-0.811681 0.21944,0 0.49375,-0.161081 0.60959,-0.357959 0.11584,-0.196875 0.65661,-0.439585 1.20171,-0.53935 0.76856,-0.140663 1.02621,-0.08986 1.14752,0.226267 0.086,0.224212 0.44004,0.407657 0.78668,0.407657 0.61224,0 0.63025,0.06024 0.63025,2.107083 0,1.158896 0.067,2.107083 0.149,2.107083 0.082,0 0.39247,-0.130302 0.69003,-0.28956 0.43542,-0.233041 0.687,-0.181631 1.28889,0.263385 0.41132,0.304121 0.9897,0.552946 1.28528,0.552946 0.46931,0 0.53741,-0.166878 0.53741,-1.316927 0,-0.72431 0.11232,-1.316927 0.24961,-1.316927 0.13728,0 0.28543,-0.622248 0.32921,-1.382773 l 0.0796,-1.382773 1.90946,-0.07739 1.90946,-0.07739 v 1.049536 c 0,1.215334 0.45047,1.704611 0.57466,0.624165 0.0769,-0.668564 0.18713,-0.735406 1.3348,-0.809051 l 1.25102,-0.08028 v -3.786907 c 0,-3.55559 0.0322,-3.797122 0.52675,-3.9541 0.46946,-0.14901 0.53073,-0.415878 0.56341,-2.454064 l 0.0367,-2.286873 0.24421,1.712005 c 0.40472,2.837285 0.41426,2.863176 0.99823,2.710457 0.45191,-0.118184 0.53163,-0.370438 0.5541,-1.75348 0.0196,-1.207646 0.0795,-1.449221 0.23712,-0.956977 0.11598,0.362155 0.22268,1.148366 0.23712,1.747133 0.0204,0.846597 0.14091,1.118653 0.54191,1.22352 0.45175,0.118141 0.52518,0.407544 0.59259,2.335341 l 0.0769,2.20049 0.98765,0.08175 0.98765,0.08174 v 2.840877 c 0,1.562484 0.077,3.925797 0.17112,5.25181 0.14967,2.10864 0.23223,2.41093 0.65844,2.41093 0.26802,0 0.49107,0.148154 0.49568,0.329232 0.005,0.185455 0.17725,0.105957 0.39506,-0.182034 0.31255,-0.413243 0.38669,-1.612545 0.38669,-6.255403 0,-4.780137 0.0626,-5.744138 0.37311,-5.744138 0.20521,0 0.41381,-0.122105 0.46356,-0.271345 0.11235,-0.337077 2.24971,-0.459381 3.03817,-0.17385 0.43608,0.157926 0.69926,0.07482 1.04618,-0.330361 0.38305,-0.447395 0.77339,-0.541371 2.24859,-0.541371 1.52131,0 1.78632,0.06811 1.79346,0.460925 0.008,0.438976 0.025,0.438976 0.35826,0 0.25354,-0.33402 0.72333,-0.460925 1.70629,-0.460925 h 1.35641 l -0.0686,11.654804 -0.0686,11.654799 -105.15189,0.0662 -105.1518918,0.0662 z"
         id="path955" />
    </g>
  </g>
</svg>
